<?xml version="1.0" encoding="UTF-8"?>
<svg xmlns="http://www.w3.org/2000/svg" xmlns:xlink="http://www.w3.org/1999/xlink" id="svg" version="1.1" width="400" height="383.54609929078015" viewBox="0, 0, 400,383.54609929078015">
  <g id="svgg">
    <path id="path0" d="M95.519 0.609 C 94.583 1.308,93.663 3.078,91.634 8.085 C 83.204 28.894,78.894 51.928,80.255 68.905 C 80.646 73.779,80.846 73.480,78.114 72.108 C 59.225 62.621,34.270 60.598,17.083 67.162 C 11.555 69.273,11.599 70.272,17.568 78.227 C 28.326 92.565,40.132 104.768,51.180 112.972 C 53.066 114.372,54.707 115.609,54.826 115.720 C 54.945 115.831,52.072 115.922,48.443 115.923 C 31.268 115.926,17.227 120.370,5.532 129.504 C 0.333 133.565,-1.040 135.906,0.574 137.959 C 1.772 139.482,15.039 146.569,23.042 149.961 C 25.114 150.839,26.846 151.590,26.891 151.630 C 26.937 151.669,25.852 152.526,24.480 153.534 C 16.172 159.635,12.253 165.680,10.652 174.861 C 8.126 189.347,18.237 203.007,36.742 210.108 C 38.227 210.678,38.819 211.039,38.717 211.314 C 38.194 212.716,37.122 219.243,36.839 222.736 C 35.309 241.667,44.609 254.729,61.483 257.349 L 63.816 257.712 61.032 260.558 C 48.839 273.019,37.280 295.431,29.934 320.851 C 27.479 329.347,27.297 328.959,34.530 330.649 C 64.568 337.669,95.322 335.929,114.888 326.102 L 117.424 324.828 118.357 325.370 C 119.585 326.083,124.290 327.593,130.780 329.357 C 139.137 331.628,141.081 331.980,144.655 331.869 L 147.765 331.773 146.294 332.700 C 143.017 334.763,133.613 339.212,128.468 341.132 L 126.014 342.048 120.525 340.960 C 113.773 339.623,100.241 337.229,94.894 336.427 C 83.877 334.774,72.817 337.386,62.505 344.077 C 58.310 346.799,58.004 347.964,60.280 352.548 C 68.621 369.351,100.948 368.089,124.929 350.024 C 126.179 349.083,127.069 348.566,126.950 348.852 C 124.579 354.521,124.708 362.190,127.386 374.676 C 128.309 378.981,133.013 378.489,133.636 374.022 C 134.192 370.036,135.166 367.964,138.095 364.538 C 142.152 359.792,145.049 348.931,143.902 342.770 L 143.625 341.285 145.784 340.103 C 146.972 339.452,148.214 338.745,148.545 338.530 L 149.146 338.139 148.618 340.346 C 147.408 345.401,147.911 349.181,151.180 359.614 C 154.815 371.215,155.471 372.482,157.835 372.482 C 160.335 372.482,160.677 371.857,160.889 366.904 C 161.105 361.866,161.855 359.101,163.729 356.437 C 168.464 349.706,169.966 334.867,166.724 326.842 L 166.041 325.150 167.927 323.279 L 169.813 321.407 170.129 323.910 C 170.722 328.609,171.935 331.323,177.953 341.418 C 186.083 355.056,188.167 357.096,190.788 353.982 C 191.670 352.933,191.651 352.099,190.665 348.511 C 189.413 343.960,189.569 338.481,191.060 334.649 C 191.432 333.692,191.905 332.287,192.110 331.528 L 192.482 330.147 193.874 332.662 C 203.681 350.387,223.833 368.000,248.750 380.622 C 253.980 383.272,254.668 383.546,256.074 383.546 L 257.625 383.546 258.717 381.182 C 265.402 366.714,271.283 347.281,273.461 332.466 C 276.739 310.163,273.394 296.231,260.645 279.087 L 258.259 275.879 261.399 279.027 C 270.493 288.147,285.108 297.067,301.844 303.712 C 311.231 307.440,312.116 307.097,312.518 299.574 C 312.843 293.479,311.749 286.400,309.388 279.329 C 308.236 275.882,307.996 274.884,308.343 274.994 C 308.591 275.073,310.834 275.920,313.327 276.877 C 325.922 281.711,337.247 284.443,338.876 283.041 C 342.140 280.234,338.261 262.767,331.935 251.786 C 329.885 248.226,329.919 248.405,331.418 249.046 C 339.496 252.500,361.321 257.872,367.273 257.872 C 370.409 257.872,371.060 256.110,370.062 250.321 C 367.947 238.047,361.525 226.256,351.455 216.157 L 347.874 212.566 352.732 212.370 C 366.450 211.815,381.687 209.410,395.393 205.636 C 401.271 204.018,401.443 202.605,396.638 195.423 C 388.982 183.980,376.248 173.995,361.761 168.078 L 359.125 167.002 359.935 166.125 C 360.380 165.643,361.806 164.099,363.102 162.695 C 373.181 151.779,389.187 127.014,389.575 121.734 L 389.645 120.773 385.390 118.804 C 368.227 110.863,341.419 103.023,331.261 102.974 C 329.387 102.965,329.556 102.554,332.063 101.022 C 346.942 91.930,355.188 79.165,355.172 65.248 C 355.152 46.832,335.389 46.701,326.949 65.061 C 326.436 66.178,325.545 68.496,324.971 70.213 C 323.935 73.306,319.537 82.752,319.261 82.476 C 319.182 82.397,319.311 81.584,319.547 80.670 C 321.528 73.004,321.136 67.597,318.086 60.522 C 311.286 44.750,294.050 39.442,272.993 46.635 L 270.950 47.333 269.622 44.876 C 257.863 23.128,240.283 16.519,222.433 27.137 C 217.900 29.833,214.841 33.597,211.176 40.990 C 210.171 43.017,209.415 44.293,209.496 43.827 C 209.577 43.360,209.913 41.574,210.244 39.858 C 212.736 26.928,209.252 15.257,201.806 11.591 C 191.578 6.556,181.566 19.329,181.561 37.419 L 181.560 41.505 179.929 39.955 C 169.235 29.798,154.574 25.715,147.166 30.830 L 146.105 31.562 144.897 30.534 C 144.232 29.968,142.475 28.470,140.993 27.204 C 130.962 18.640,115.860 9.054,101.509 2.140 C 96.580 -0.234,96.632 -0.221,95.519 0.609 M105.663 13.318 C 105.911 16.816,106.893 24.640,107.498 27.943 C 107.784 29.504,107.990 30.812,107.956 30.852 C 107.729 31.116,100.327 14.550,98.681 10.094 C 97.575 7.099,97.768 7.044,102.012 9.158 L 105.490 10.891 105.663 13.318 M99.311 17.112 C 100.514 21.893,102.540 28.044,105.404 35.603 C 105.522 35.915,103.461 34.059,100.823 31.478 C 97.001 27.738,93.592 24.636,92.509 23.913 C 92.329 23.792,94.635 16.991,96.241 12.908 L 97.691 9.220 98.066 11.438 C 98.272 12.658,98.833 15.212,99.311 17.112 M112.289 14.736 C 114.424 15.975,116.391 17.156,116.662 17.360 C 117.170 17.743,117.710 26.271,118.150 40.851 C 118.237 43.738,118.375 47.376,118.456 48.936 L 118.603 51.773 115.741 46.277 L 112.878 40.780 113.319 38.845 C 114.897 31.904,112.752 19.886,108.823 13.663 C 107.860 12.138,107.762 12.107,112.289 14.736 M199.130 17.011 C 203.797 19.393,206.317 29.255,204.460 37.872 C 202.483 47.042,202.383 57.634,204.134 72.316 C 204.514 75.501,204.790 78.141,204.749 78.183 C 204.570 78.361,200.131 71.871,197.843 68.088 C 188.990 53.449,185.726 39.907,188.467 29.196 C 190.879 19.773,195.096 14.954,199.130 17.011 M124.568 22.440 L 127.858 24.635 128.039 27.140 C 128.816 37.943,128.944 60.782,128.269 68.283 L 128.085 70.325 124.492 63.319 L 120.899 56.312 121.728 53.852 C 124.852 44.580,124.797 32.236,121.587 22.654 C 121.076 21.129,120.797 19.963,120.967 20.063 C 121.137 20.163,122.758 21.233,124.568 22.440 M135.177 30.266 C 137.989 32.522,141.777 35.842,142.212 36.431 C 142.702 37.097,141.936 52.685,140.976 61.560 C 140.170 69.013,137.357 86.852,136.918 87.290 C 136.864 87.344,135.301 84.414,133.445 80.779 L 130.071 74.170 131.288 70.528 C 135.384 58.279,135.885 43.997,132.670 31.183 C 132.170 29.188,131.891 27.653,132.051 27.772 C 132.210 27.892,133.617 29.014,135.177 30.266 M92.480 30.066 C 95.773 35.705,101.802 41.084,106.865 42.900 L 108.624 43.531 110.107 46.943 C 110.922 48.819,112.388 52.046,113.363 54.113 C 114.339 56.181,115.076 57.872,115.001 57.872 C 113.577 57.872,88.451 39.391,88.642 38.483 C 89.108 36.269,91.137 28.085,91.221 28.085 C 91.277 28.085,91.843 28.977,92.480 30.066 M243.546 28.653 C 252.782 31.015,262.323 41.248,267.296 54.127 L 267.766 55.346 269.131 54.659 C 277.251 50.567,289.571 48.613,297.255 50.199 C 309.325 52.689,316.708 64.772,314.037 77.662 C 310.254 95.918,295.705 110.400,275.527 115.991 L 273.492 116.555 271.678 114.235 L 269.863 111.915 271.858 109.787 C 274.431 107.042,275.956 104.966,277.557 102.028 C 279.288 98.854,284.194 92.327,288.561 87.390 C 290.945 84.696,290.215 84.676,286.197 87.325 C 276.863 93.479,269.686 101.417,268.184 107.248 L 267.685 109.184 263.913 105.346 L 260.140 101.507 262.351 99.145 C 263.636 97.771,265.150 95.750,265.969 94.317 C 268.693 89.545,274.998 81.037,278.523 77.376 C 282.013 73.752,274.831 77.953,269.078 82.900 C 262.393 88.650,259.379 92.375,258.011 96.580 C 257.475 98.228,257.121 98.930,256.909 98.766 C 256.737 98.633,255.635 97.771,254.461 96.851 C 253.287 95.930,251.360 94.547,250.178 93.777 L 248.029 92.376 249.409 89.487 C 250.192 87.848,251.148 85.201,251.619 83.370 C 252.787 78.830,254.388 74.750,258.055 66.969 C 259.978 62.891,259.710 62.530,256.987 65.530 C 250.655 72.508,245.139 81.841,244.328 86.950 C 244.081 88.511,243.856 89.820,243.829 89.860 C 243.801 89.900,242.261 89.211,240.405 88.329 C 238.550 87.447,235.575 86.173,233.795 85.498 C 232.015 84.822,230.516 84.227,230.464 84.175 C 230.412 84.124,230.808 83.067,231.343 81.828 C 231.878 80.589,232.758 77.915,233.299 75.887 C 234.267 72.256,237.471 64.314,239.978 59.332 C 241.833 55.647,241.111 55.751,237.722 59.659 C 231.336 67.020,226.180 76.173,225.654 81.081 C 225.509 82.438,225.367 82.834,225.070 82.720 C 224.293 82.422,218.537 81.406,216.468 81.202 L 214.355 80.993 213.578 78.070 C 209.508 62.748,212.304 47.810,221.518 35.656 C 225.492 30.414,236.611 26.879,243.546 28.653 M160.993 35.592 C 173.431 39.284,183.019 49.920,190.159 67.948 C 191.663 71.744,194.042 79.120,194.043 79.983 C 194.043 80.208,191.713 78.093,188.865 75.283 C 179.670 66.209,172.764 60.789,164.716 56.332 C 163.071 55.421,162.693 55.067,162.311 54.079 C 160.155 48.511,157.161 43.816,152.134 38.122 C 150.193 35.924,150.193 35.889,152.076 35.036 C 153.542 34.372,157.770 34.635,160.993 35.592 M150.123 44.956 L 152.417 47.784 152.255 59.282 C 152.115 69.197,151.751 76.236,151.052 82.553 L 150.880 84.113 148.135 84.961 C 145.901 85.651,142.660 86.875,140.494 87.846 C 140.297 87.934,140.563 87.006,141.088 85.776 C 146.859 72.250,148.826 53.852,145.921 40.573 C 145.730 39.699,146.568 40.573,150.123 44.956 M94.156 50.179 C 99.788 55.801,106.495 59.361,113.926 60.672 L 116.624 61.148 120.576 68.863 C 124.200 75.937,124.464 76.553,123.753 76.283 C 116.204 73.414,100.900 64.422,90.537 56.767 L 86.464 53.759 86.638 51.631 C 86.809 49.546,87.492 44.605,87.825 43.038 C 87.984 42.290,88.089 42.391,89.708 44.848 C 90.692 46.342,92.587 48.613,94.156 50.179 M159.558 65.802 C 160.459 70.089,161.089 74.695,161.316 78.676 L 161.499 81.889 159.489 82.221 C 158.384 82.404,157.372 82.553,157.242 82.553 C 157.111 82.553,157.167 81.181,157.366 79.504 C 157.811 75.766,157.858 65.195,157.447 61.547 C 157.280 60.072,157.087 58.355,157.017 57.730 C 156.805 55.854,158.793 62.169,159.558 65.802 M345.929 57.700 C 352.239 60.337,349.372 76.192,340.810 86.019 C 334.831 92.881,319.929 102.158,313.411 103.076 L 312.354 103.225 315.276 99.343 C 322.971 89.121,327.693 80.827,330.592 72.436 C 334.269 61.796,340.774 55.546,345.929 57.700 M89.386 61.560 C 97.749 71.077,113.174 78.582,124.371 78.582 L 125.625 78.582 128.796 84.283 C 130.540 87.419,132.211 90.398,132.509 90.904 L 133.052 91.824 131.671 92.575 L 130.291 93.326 128.337 92.647 C 114.057 87.686,101.480 81.106,89.185 72.163 L 86.314 70.074 86.110 65.576 C 85.998 63.101,85.999 60.334,86.112 59.426 L 86.319 57.775 86.917 58.604 C 87.247 59.060,88.358 60.390,89.386 61.560 M169.721 66.691 C 174.651 70.166,189.504 83.561,189.504 84.531 C 189.504 85.484,187.165 85.448,185.036 84.463 C 180.697 82.455,177.270 81.692,171.489 81.446 L 167.518 81.277 167.452 80.000 C 167.210 75.262,166.208 67.333,165.491 64.475 L 165.300 63.717 166.267 64.327 C 166.799 64.663,168.353 65.727,169.721 66.691 M46.525 69.509 C 68.791 71.451,92.551 84.042,110.382 103.349 L 113.213 106.414 110.929 108.856 C 109.673 110.198,108.040 112.102,107.301 113.087 C 105.679 115.249,106.585 115.469,99.433 111.174 C 83.101 101.367,63.142 91.603,49.078 86.541 L 46.667 85.673 47.518 86.387 C 52.445 90.517,74.400 103.926,94.637 115.165 L 102.608 119.592 100.810 122.987 C 99.258 125.918,98.924 126.372,98.371 126.306 C 97.547 126.206,80.754 121.188,75.745 119.545 C 59.344 114.163,40.645 98.562,23.318 75.805 L 20.678 72.338 21.411 72.060 C 27.113 69.891,38.106 68.775,46.525 69.509 M89.657 77.554 L 92.057 80.073 89.645 78.530 C 87.351 77.062,87.226 76.929,87.072 75.793 C 86.983 75.136,86.989 74.697,87.084 74.817 C 87.180 74.937,88.337 76.169,89.657 77.554 M218.436 88.663 C 244.812 92.966,267.548 113.035,280.266 143.244 C 280.944 144.855,281.035 145.251,280.648 144.920 C 272.081 137.577,261.820 131.620,252.402 128.524 C 250.734 127.975,250.188 127.601,248.289 125.710 C 239.430 116.887,226.917 111.794,215.948 112.545 L 213.722 112.698 210.762 110.453 C 201.774 103.638,188.971 100.758,176.514 102.752 L 173.880 103.174 174.670 102.338 C 175.743 101.205,181.212 97.136,183.837 95.520 C 194.065 89.221,206.611 86.734,218.436 88.663 M110.355 91.711 C 114.097 93.324,118.949 94.885,122.741 95.697 L 125.669 96.324 123.411 97.957 C 122.169 98.855,120.373 100.216,119.420 100.981 L 117.688 102.371 112.532 97.183 C 109.696 94.330,106.418 91.136,105.248 90.084 L 103.121 88.172 105.248 89.299 C 106.418 89.919,108.716 91.004,110.355 91.711 M176.450 89.206 C 179.253 89.813,179.309 89.933,177.386 91.200 C 172.793 94.226,167.032 99.391,162.825 104.255 C 160.723 106.686,160.511 106.848,158.394 107.626 C 142.821 113.354,130.215 127.298,126.218 143.217 C 125.854 144.665,125.719 144.820,123.131 146.760 C 115.810 152.249,110.255 159.000,106.102 167.458 L 104.182 171.370 103.589 169.160 C 95.044 137.301,108.322 111.969,142.553 94.821 C 148.477 91.853,156.138 89.742,164.823 88.684 C 166.945 88.425,174.390 88.759,176.450 89.206 M325.229 108.552 L 326.565 108.735 324.730 109.799 C 311.991 117.190,300.346 129.877,293.852 143.441 L 292.204 146.882 290.890 147.212 C 289.306 147.611,289.704 148.109,287.963 143.546 C 287.160 141.440,286.285 139.165,286.019 138.491 L 285.537 137.266 293.336 129.545 C 306.182 116.827,315.569 108.745,317.690 108.576 C 320.148 108.380,323.887 108.368,325.229 108.552 M341.418 110.591 L 345.390 111.364 342.128 112.939 C 329.831 118.873,316.793 130.970,311.434 141.418 C 311.114 142.043,310.836 142.575,310.816 142.601 C 310.740 142.699,296.859 145.816,296.498 145.816 C 295.949 145.816,301.913 138.691,308.966 130.922 C 313.753 125.648,322.887 116.661,327.751 112.439 L 331.672 109.035 334.559 109.426 C 336.147 109.641,339.234 110.165,341.418 110.591 M192.329 109.960 C 196.501 110.687,204.809 113.987,204.044 114.612 C 203.926 114.708,202.681 115.210,201.277 115.727 C 194.376 118.268,186.275 123.233,180.077 128.721 L 178.169 130.411 175.680 130.594 C 164.521 131.415,151.743 138.070,144.107 147.038 C 140.047 151.805,136.259 160.797,135.315 167.905 C 134.974 170.468,131.669 176.037,130.927 175.296 C 130.291 174.660,130.578 157.143,131.292 153.051 C 135.496 128.960,148.897 115.525,173.739 110.495 C 180.189 109.189,186.815 108.998,192.329 109.960 M303.250 113.315 C 296.737 117.727,289.465 124.258,284.960 129.741 L 282.990 132.140 281.620 129.546 L 280.250 126.952 281.047 126.292 C 288.058 120.483,296.232 115.292,303.036 112.325 C 307.340 110.448,307.358 110.532,303.250 113.315 M354.051 113.642 C 358.473 114.915,358.568 114.969,357.237 115.435 C 347.339 118.907,337.088 127.104,331.731 135.830 C 330.993 137.032,330.353 138.064,330.308 138.126 C 330.263 138.187,326.935 138.982,322.914 139.892 C 318.893 140.802,315.391 141.599,315.131 141.662 C 314.097 141.916,327.619 129.981,336.032 123.216 C 340.765 119.410,349.832 112.624,350.184 112.624 C 350.366 112.624,352.106 113.082,354.051 113.642 M367.092 117.863 C 372.606 119.865,372.620 119.873,370.743 120.111 C 363.343 121.048,353.514 126.677,348.524 132.837 C 347.798 133.734,347.149 134.468,347.082 134.468 C 347.016 134.468,344.443 135.037,341.364 135.732 C 338.286 136.427,335.731 136.961,335.688 136.917 C 335.475 136.704,361.964 116.337,362.474 116.322 C 362.664 116.317,364.742 117.010,367.092 117.863 M223.614 120.137 C 238.346 122.706,250.617 135.280,253.806 151.074 C 254.365 153.843,254.510 164.489,254.010 166.016 L 253.759 166.783 250.922 165.069 C 247.499 163.001,243.053 160.752,239.521 159.302 L 236.915 158.232 236.304 156.222 C 232.897 145.004,222.637 137.997,207.373 136.464 C 204.955 136.221,203.909 135.957,201.841 135.067 C 198.715 133.721,194.404 132.322,191.252 131.629 C 189.951 131.343,188.825 131.048,188.750 130.972 C 188.510 130.732,195.212 126.415,198.215 124.876 C 206.967 120.390,215.710 118.759,223.614 120.137 M378.555 122.361 C 382.832 124.226,382.915 124.484,379.618 125.677 C 374.645 127.477,358.994 131.854,358.675 131.535 C 358.594 131.455,358.956 131.171,359.477 130.903 C 362.792 129.205,370.437 124.278,373.050 122.157 C 374.957 120.608,374.497 120.591,378.555 122.361 M56.211 122.281 C 65.512 123.216,75.945 125.941,84.965 129.790 C 89.445 131.702,95.887 135.017,95.885 135.410 C 95.884 135.594,95.766 136.191,95.622 136.738 C 95.478 137.284,95.218 138.448,95.044 139.324 L 94.727 140.918 92.824 140.519 C 75.840 136.954,44.101 135.109,32.057 136.987 L 30.780 137.186 32.908 137.682 C 45.171 140.538,64.363 143.099,85.765 144.733 L 94.225 145.379 94.031 147.087 C 93.924 148.026,93.819 148.809,93.798 148.826 C 93.542 149.034,68.448 152.185,63.356 152.649 C 50.415 153.827,32.021 148.606,12.715 138.276 C 7.367 135.415,7.552 135.642,9.402 134.178 C 21.244 124.811,38.286 120.479,56.211 122.281 M380.440 127.348 C 379.503 129.183,376.821 133.810,375.100 136.557 L 373.526 139.072 372.366 138.907 C 371.728 138.816,369.929 138.547,368.369 138.308 C 366.809 138.069,363.745 137.736,361.560 137.568 C 354.887 137.056,354.979 137.200,360.148 135.342 C 368.152 132.466,376.004 129.017,379.426 126.875 C 381.122 125.814,381.203 125.852,380.440 127.348 M187.277 138.146 C 190.546 138.711,195.062 139.915,196.250 140.537 C 196.894 140.875,196.885 140.893,195.544 141.855 C 193.611 143.241,188.051 147.901,185.464 150.302 C 183.977 151.682,183.043 152.340,182.571 152.340 C 182.187 152.340,180.813 152.675,179.518 153.083 C 170.275 155.997,164.668 162.371,163.027 171.831 C 162.662 173.930,162.528 174.201,160.771 176.378 C 158.902 178.692,156.232 182.968,155.320 185.106 C 154.420 187.217,153.226 190.921,153.034 192.202 C 152.788 193.842,152.789 193.842,150.456 191.418 C 144.918 185.665,142.364 179.779,142.302 172.624 C 142.113 150.863,163.962 134.113,187.277 138.146 M260.683 139.882 C 286.521 153.445,296.116 173.581,292.033 205.674 C 289.776 223.420,276.771 247.186,264.681 255.659 C 256.302 261.531,233.681 270.355,227.006 270.355 C 226.914 270.355,228.167 269.455,229.788 268.355 C 237.794 262.924,245.579 255.607,252.459 247.046 C 254.339 244.707,255.470 243.608,257.427 242.221 C 280.643 225.763,283.312 194.451,263.196 174.526 L 260.248 171.605 260.809 168.710 C 262.548 159.749,260.960 145.801,257.422 138.959 C 256.868 137.887,256.902 137.897,260.683 139.882 M350.671 140.823 C 355.881 143.268,362.646 144.164,368.359 143.167 C 369.758 142.923,370.936 142.756,370.977 142.797 C 371.070 142.890,367.498 147.864,365.652 150.214 L 364.280 151.959 356.254 150.058 C 345.479 147.507,333.359 144.234,332.870 143.744 C 332.816 143.690,334.781 143.109,337.237 142.452 C 339.693 141.795,342.915 140.892,344.397 140.444 C 347.878 139.392,347.581 139.374,350.671 140.823 M209.787 143.967 C 226.699 146.738,233.968 158.557,229.288 175.674 L 229.075 176.454 227.374 175.060 C 224.872 173.011,221.028 170.680,218.217 169.505 C 215.773 168.485,215.727 168.447,214.235 166.233 C 209.599 159.353,205.212 156.179,196.540 153.430 L 193.672 152.521 194.779 151.573 C 196.565 150.043,201.231 146.481,203.444 144.956 C 205.746 143.371,205.952 143.338,209.787 143.967 M330.911 145.866 C 335.451 150.135,342.208 153.271,349.466 154.478 C 352.451 154.975,360.007 154.951,361.694 154.440 C 362.645 154.152,361.702 155.343,357.515 159.722 L 354.436 162.943 351.048 162.151 C 338.089 159.124,328.099 155.732,316.911 150.558 C 313.556 149.007,312.669 148.489,313.081 148.322 C 313.376 148.202,316.234 147.523,319.433 146.812 C 322.631 146.100,326.142 145.285,327.234 145.000 C 329.459 144.418,329.342 144.391,330.911 145.866 M311.538 150.321 C 314.196 153.318,318.879 156.903,323.482 159.466 L 325.532 160.607 322.979 160.431 C 320.573 160.266,308.449 160.712,307.509 161.000 C 306.776 161.225,291.959 152.727,292.399 152.334 C 292.523 152.223,294.922 151.724,297.730 151.225 C 300.539 150.727,304.241 150.020,305.957 149.656 C 310.261 148.742,310.124 148.726,311.538 150.321 M36.275 154.739 C 41.037 156.419,49.733 158.147,55.762 158.612 C 60.577 158.982,62.996 158.811,76.153 157.170 L 84.930 156.074 86.601 156.918 C 89.354 158.308,94.493 161.435,94.613 161.793 C 95.016 162.999,94.900 163.132,92.624 164.071 C 86.501 166.598,79.266 170.782,74.823 174.366 C 71.763 176.835,72.135 177.002,76.692 175.206 C 84.709 172.046,95.845 168.868,96.288 169.614 C 96.345 169.709,96.676 170.809,97.024 172.057 C 97.372 173.305,98.028 175.333,98.481 176.565 C 98.935 177.796,99.271 178.824,99.227 178.849 C 99.184 178.874,98.383 179.124,97.447 179.405 C 96.511 179.686,94.660 180.423,93.333 181.044 C 90.444 182.396,79.592 186.785,74.524 188.651 C 72.526 189.386,70.903 190.103,70.916 190.242 C 71.020 191.333,90.614 187.974,98.298 185.548 C 99.702 185.105,100.866 184.760,100.883 184.782 C 100.901 184.805,100.853 186.871,100.777 189.374 L 100.638 193.925 99.260 194.252 C 98.503 194.432,96.317 195.271,94.402 196.117 C 89.068 198.473,83.082 200.704,79.007 201.856 C 73.691 203.358,73.738 203.334,74.320 204.255 C 74.964 205.274,93.306 202.599,100.567 200.428 C 101.094 200.270,101.180 200.526,101.773 204.030 C 102.124 206.104,102.490 208.152,102.586 208.582 C 102.712 209.143,102.650 209.362,102.365 209.362 C 101.737 209.362,98.032 211.218,96.244 212.429 C 91.566 215.597,78.555 222.604,77.994 222.257 C 77.654 222.047,76.807 223.232,76.978 223.677 C 77.237 224.352,78.686 224.214,82.576 223.144 C 87.854 221.693,100.316 217.172,102.620 215.873 C 104.475 214.827,104.285 214.771,104.837 216.525 L 105.306 218.014 103.981 221.039 C 97.293 236.305,84.392 247.602,69.362 251.354 C 61.368 253.349,49.722 248.039,45.865 240.639 C 41.754 232.754,41.725 220.121,45.793 208.914 C 46.258 207.633,46.367 207.020,46.142 206.948 C 20.246 198.623,11.002 185.306,19.209 168.149 C 21.444 163.478,25.665 159.508,32.848 155.321 C 34.757 154.209,34.768 154.207,36.275 154.739 M123.517 157.943 C 122.913 164.013,123.481 175.396,124.766 182.979 L 125.271 185.957 124.035 189.078 C 114.903 212.129,122.976 235.510,144.681 248.872 C 159.980 258.291,175.901 257.770,190.396 247.376 L 193.103 245.435 200.311 247.513 C 215.525 251.901,226.605 252.989,236.596 251.076 C 238.234 250.762,239.633 250.504,239.704 250.501 C 240.383 250.477,232.759 257.312,228.741 260.330 C 206.516 277.023,181.656 278.796,155.255 265.571 C 136.473 256.162,125.365 245.031,116.861 227.096 C 103.629 199.190,104.864 176.279,120.552 158.652 C 123.698 155.118,123.801 155.093,123.517 157.943 M295.986 159.661 C 297.211 160.784,298.328 161.702,298.468 161.702 C 299.386 161.702,298.460 162.231,297.265 162.390 C 296.463 162.496,295.451 162.654,295.016 162.741 C 294.078 162.929,292.985 161.124,292.669 158.865 C 292.570 158.163,292.406 157.270,292.304 156.879 L 292.118 156.170 292.938 156.895 C 293.390 157.294,294.761 158.539,295.986 159.661 M191.915 159.574 C 195.808 160.387,198.237 161.439,197.433 161.963 C 187.196 168.642,179.053 179.590,177.723 188.463 C 177.445 190.318,177.282 190.306,175.469 188.303 C 169.517 181.726,168.326 175.025,171.798 167.660 C 174.813 161.267,183.432 157.802,191.915 159.574 M206.164 167.317 C 213.204 175.666,213.963 183.531,208.330 189.756 C 205.778 192.576,200.153 196.432,199.671 195.692 C 198.194 193.423,194.610 178.055,194.610 173.989 C 194.610 172.988,196.600 171.226,201.355 168.019 C 204.972 165.579,204.728 165.615,206.164 167.317 M245.921 170.413 C 265.465 181.725,272.935 197.014,268.088 215.784 C 265.153 227.152,254.221 238.270,241.947 242.369 C 230.457 246.206,215.919 245.341,199.475 239.840 C 199.221 239.755,199.634 239.126,200.702 237.973 C 203.993 234.418,208.040 228.821,211.139 223.538 L 212.725 220.835 216.079 220.505 C 235.019 218.643,243.932 202.569,235.562 185.367 L 234.585 183.358 235.309 180.860 C 236.370 177.197,237.117 173.344,237.490 169.605 L 237.820 166.301 240.399 167.506 C 241.818 168.168,244.303 169.477,245.921 170.413 M325.816 166.532 C 352.127 167.976,373.607 177.349,387.558 193.475 C 389.298 195.487,392.340 199.640,392.340 200.003 C 392.340 200.513,378.978 203.409,371.489 204.522 C 361.300 206.036,350.474 206.728,343.381 206.320 L 339.101 206.074 336.744 204.578 C 327.616 198.782,316.875 194.259,305.273 191.323 C 299.427 189.844,300.192 190.403,299.966 187.454 L 299.778 185.015 301.875 185.421 C 319.741 188.875,343.973 192.508,356.454 193.604 C 365.289 194.379,365.223 194.410,359.078 192.392 C 343.830 187.386,323.390 182.718,306.099 180.292 C 303.213 179.887,300.461 179.495,299.984 179.421 C 299.143 179.290,299.106 179.219,298.749 177.090 C 298.547 175.882,297.972 173.465,297.471 171.720 C 296.572 168.587,296.568 168.544,297.145 168.401 C 298.634 168.033,306.066 167.090,309.645 166.814 C 317.192 166.234,319.613 166.192,325.816 166.532 M220.870 179.119 C 227.144 183.344,230.919 189.897,231.405 197.408 C 231.989 206.417,225.544 212.578,214.596 213.478 L 212.312 213.666 210.908 212.551 C 208.584 210.707,206.172 207.848,203.870 204.212 L 202.854 202.608 204.902 201.404 C 214.154 195.969,219.057 189.006,219.123 181.207 C 219.137 179.531,219.214 178.158,219.295 178.157 C 219.375 178.157,220.084 178.589,220.870 179.119 M189.519 186.809 C 192.137 198.313,197.534 209.532,202.954 214.737 C 204.281 216.011,204.260 216.069,202.340 216.474 C 198.897 217.200,195.405 215.991,192.129 212.937 C 183.824 205.194,181.908 192.592,187.470 182.299 L 188.220 180.911 188.418 181.874 C 188.526 182.404,189.022 184.624,189.519 186.809 M136.860 182.908 C 138.819 189.172,143.689 195.681,150.582 201.251 C 152.487 202.790,152.563 202.900,152.899 204.612 C 156.780 224.371,177.834 237.428,195.818 231.230 L 197.451 230.667 197.137 231.254 C 196.556 232.339,189.667 239.038,187.376 240.744 C 174.061 250.663,160.688 250.995,146.809 241.751 C 126.672 228.339,121.802 206.087,134.240 184.326 C 136.276 180.764,136.202 180.804,136.860 182.908 M167.708 190.099 C 168.437 191.119,170.416 193.271,172.106 194.879 C 176.315 198.886,177.766 200.640,177.981 201.982 C 179.335 210.454,187.807 220.839,195.128 223.003 C 199.223 224.213,187.363 226.135,182.027 225.126 C 164.058 221.729,154.487 203.088,162.439 186.977 L 164.037 183.740 165.210 185.991 C 165.855 187.230,166.979 189.078,167.708 190.099 M304.823 197.288 C 335.680 205.437,359.021 226.041,363.725 249.283 C 364.193 251.597,364.312 251.557,359.647 250.674 C 340.629 247.075,324.732 240.957,318.298 234.761 C 314.818 231.410,311.797 228.923,307.282 225.693 C 304.762 223.891,297.278 216.574,297.319 215.953 C 297.384 214.958,298.705 210.082,298.899 210.119 C 299.036 210.146,303.043 212.766,307.801 215.942 C 321.792 225.278,331.015 230.871,339.858 235.383 L 345.106 238.060 341.907 234.924 C 333.214 226.403,316.465 213.902,303.296 206.107 L 299.499 203.859 299.677 201.575 C 299.775 200.319,299.856 198.621,299.856 197.801 C 299.859 195.956,299.801 195.962,304.823 197.288 M296.928 226.120 C 317.177 237.756,330.695 255.428,333.466 273.886 C 333.698 275.435,333.839 276.752,333.778 276.813 C 333.073 277.518,313.783 270.920,306.159 267.367 L 303.240 266.007 301.083 262.862 C 297.198 257.194,292.319 251.679,286.733 246.640 L 284.246 244.397 285.101 243.121 C 285.570 242.418,285.996 241.721,286.047 241.572 C 286.098 241.422,288.173 242.837,290.658 244.718 C 300.218 251.949,316.028 262.713,316.028 261.990 C 316.028 261.756,312.117 257.382,309.078 254.218 C 305.338 250.322,299.146 244.544,294.124 240.264 C 291.895 238.363,289.889 236.638,289.667 236.430 C 289.319 236.104,289.526 235.496,291.124 232.139 C 292.149 229.987,293.288 227.431,293.656 226.458 C 294.025 225.485,294.348 224.687,294.375 224.685 C 294.401 224.683,295.550 225.329,296.928 226.120 M110.355 230.282 C 111.369 232.421,112.996 235.572,113.971 237.282 C 115.982 240.811,116.013 240.698,112.950 240.972 C 109.690 241.264,103.261 242.233,99.465 243.003 C 97.610 243.380,95.953 243.688,95.784 243.688 C 95.614 243.688,96.376 242.762,97.478 241.631 C 101.232 237.775,104.440 233.411,106.966 228.724 C 108.521 225.839,108.172 225.678,110.355 230.282 M122.145 249.065 C 123.072 250.228,125.014 252.418,126.462 253.931 L 129.095 256.683 128.380 257.246 L 127.664 257.808 125.103 257.005 C 110.961 252.572,91.862 252.902,75.759 257.859 C 73.226 258.639,73.330 258.434,76.229 256.940 C 86.741 251.521,101.950 247.778,118.865 246.447 C 120.014 246.357,119.939 246.297,122.145 249.065 M286.222 254.423 C 298.762 266.910,305.232 279.825,306.399 294.702 C 306.575 296.938,306.656 298.829,306.580 298.905 C 306.110 299.375,290.718 292.276,284.681 288.805 C 273.761 282.528,265.282 275.459,260.376 268.544 L 259.263 266.974 260.681 266.256 C 261.461 265.860,263.331 264.825,264.838 263.956 L 267.577 262.374 269.091 263.740 C 269.923 264.492,272.623 266.974,275.090 269.258 C 281.217 274.929,289.058 281.536,291.027 282.686 C 292.702 283.663,282.068 269.791,275.114 261.926 L 272.302 258.745 274.804 256.213 C 276.179 254.820,278.071 252.725,279.007 251.558 C 281.090 248.960,280.501 248.726,286.222 254.423 M126.369 258.684 C 126.221 258.818,122.602 261.513,118.328 264.673 L 110.557 270.418 106.413 269.391 C 91.610 265.724,75.411 266.426,61.686 271.332 L 58.968 272.303 59.752 271.258 C 60.915 269.707,64.523 265.466,65.178 264.880 C 67.396 262.896,96.685 259.567,119.007 258.762 C 122.596 258.633,125.781 258.507,126.085 258.483 C 126.412 258.458,126.528 258.540,126.369 258.684 M134.629 261.206 C 136.185 262.415,138.242 263.911,139.202 264.531 C 141.323 265.901,141.277 265.725,141.277 272.361 C 141.277 290.665,134.111 306.160,121.566 314.983 L 120.709 315.586 121.560 314.464 C 132.184 300.465,136.112 279.761,131.349 262.874 C 130.523 259.945,130.505 259.772,130.984 259.408 C 131.692 258.871,131.513 258.783,134.629 261.206 M129.897 262.624 C 129.784 263.833,129.544 266.418,129.363 268.369 C 127.982 283.280,125.564 294.575,121.027 307.311 C 119.260 312.271,116.934 317.772,116.361 318.349 C 115.370 319.345,104.020 324.540,103.648 324.168 C 103.603 324.123,104.249 323.177,105.084 322.066 C 115.099 308.754,120.336 287.510,117.131 273.194 C 116.854 271.952,116.871 271.900,117.785 271.166 C 118.301 270.752,121.213 268.175,124.255 265.440 C 127.298 262.705,129.858 260.458,129.945 260.446 C 130.031 260.435,130.010 261.415,129.897 262.624 M151.613 271.910 C 159.452 275.863,168.166 278.881,175.745 280.268 C 177.617 280.611,179.436 280.948,179.787 281.018 C 180.236 281.108,180.426 281.347,180.426 281.826 C 180.426 283.275,180.381 283.290,176.518 283.176 C 168.866 282.950,160.809 285.646,156.104 290.009 C 153.568 292.360,151.391 293.450,147.748 294.192 C 144.584 294.837,143.830 295.459,143.830 297.424 C 143.830 300.289,145.130 300.715,157.699 301.974 C 166.444 302.850,170.084 302.191,174.752 298.888 C 176.822 297.423,176.796 297.425,176.280 298.774 C 174.629 303.087,171.472 308.856,168.663 312.695 L 167.054 314.893 166.151 314.217 C 159.668 309.358,141.827 310.414,133.794 316.132 C 131.458 317.794,130.096 318.456,127.618 319.134 L 125.532 319.704 127.092 318.369 C 140.450 306.943,147.007 292.588,147.306 274.115 C 147.344 271.736,147.382 269.789,147.389 269.789 C 147.396 269.788,149.297 270.743,151.613 271.910 M254.782 271.108 C 255.851 272.662,255.466 272.541,254.181 270.918 C 253.689 270.296,253.418 269.787,253.580 269.787 C 253.741 269.787,254.282 270.381,254.782 271.108 M249.150 274.397 C 256.161 282.298,266.099 298.002,266.099 301.178 C 266.099 301.253,265.329 300.162,264.387 298.754 C 258.856 290.486,249.647 281.073,241.915 275.788 C 241.174 275.281,240.569 274.777,240.572 274.667 C 240.576 274.484,246.247 272.462,246.996 272.378 C 247.177 272.357,248.146 273.266,249.150 274.397 M107.494 272.729 C 103.353 276.402,95.230 281.906,94.273 281.687 C 82.557 279.011,65.336 281.114,52.501 286.788 C 50.775 287.551,49.362 288.109,49.362 288.027 C 49.362 287.757,53.504 280.460,54.829 278.396 C 56.291 276.119,55.825 276.329,61.277 275.485 C 73.516 273.590,84.217 272.838,101.111 272.683 C 104.687 272.651,107.559 272.671,107.494 272.729 M114.328 277.774 C 111.606 294.797,107.643 307.756,100.881 321.741 L 99.011 325.609 96.527 326.218 C 94.189 326.791,87.952 327.937,87.153 327.941 C 86.952 327.942,87.632 326.975,88.664 325.792 C 97.475 315.689,102.761 298.411,100.642 286.642 L 100.434 285.483 104.188 282.478 C 106.254 280.826,109.473 278.197,111.343 276.636 C 113.213 275.075,114.786 273.840,114.838 273.893 C 114.891 273.945,114.661 275.692,114.328 277.774 M236.844 278.199 C 246.393 286.673,255.971 296.337,264.478 306.084 C 268.878 311.124,268.649 310.516,268.645 317.163 L 268.643 320.993 268.041 320.000 C 259.839 306.467,248.453 296.019,234.610 289.323 C 232.348 288.229,230.309 287.236,230.081 287.117 C 229.828 286.986,229.210 285.079,228.502 282.245 L 227.340 277.589 230.762 276.847 C 232.644 276.438,234.233 276.087,234.291 276.066 C 234.350 276.045,235.499 277.005,236.844 278.199 M223.319 281.208 L 223.802 283.976 220.474 287.307 C 208.854 298.937,201.857 315.082,201.339 331.462 L 201.277 333.420 199.462 330.245 C 198.464 328.499,197.007 325.584,196.225 323.767 L 194.803 320.463 195.957 316.472 C 199.296 304.923,204.422 293.103,210.546 282.830 L 212.908 278.869 214.752 278.832 C 215.766 278.812,217.489 278.700,218.582 278.585 C 219.674 278.469,221.078 278.389,221.702 278.407 L 222.837 278.440 223.319 281.208 M204.116 282.683 C 197.841 291.933,193.475 304.629,193.475 313.630 C 193.475 316.151,193.297 315.881,192.604 312.309 C 190.675 302.357,191.687 292.807,195.660 283.488 L 196.652 281.161 197.971 280.982 C 199.928 280.715,206.019 279.466,206.189 279.296 C 206.722 278.763,206.228 279.570,204.116 282.683 M189.632 282.199 C 187.999 285.945,186.210 293.083,185.901 297.086 L 185.728 299.337 184.596 298.205 L 183.464 297.073 184.224 294.423 C 185.043 291.570,186.383 284.730,186.383 283.409 C 186.383 281.897,186.600 281.702,188.288 281.702 C 189.667 281.702,189.823 281.760,189.632 282.199 M91.599 284.775 C 88.322 287.291,80.039 293.559,79.772 293.725 C 79.585 293.840,77.741 293.718,75.674 293.454 C 66.145 292.237,54.098 294.626,45.628 299.411 L 43.455 300.639 43.961 299.468 C 45.292 296.388,46.896 292.888,47.056 292.712 C 47.307 292.436,57.355 290.145,64.794 288.667 C 72.157 287.205,82.633 285.520,92.024 284.288 C 92.162 284.270,91.971 284.489,91.599 284.775 M225.076 290.780 C 225.478 292.887,226.315 296.959,226.936 299.831 L 228.066 305.052 226.815 306.153 C 217.679 314.195,210.765 331.968,211.829 344.681 L 212.007 346.809 210.472 345.131 C 208.440 342.912,205.623 339.516,204.653 338.116 L 203.874 336.991 205.356 331.039 C 208.968 316.537,213.419 305.669,221.643 291.272 C 223.048 288.812,224.231 286.833,224.272 286.875 C 224.312 286.916,224.674 288.674,225.076 290.780 M98.547 287.872 C 95.928 298.768,91.177 311.562,85.499 323.009 L 82.810 328.429 80.483 328.610 C 79.203 328.709,76.638 328.792,74.783 328.793 L 71.410 328.794 73.872 326.312 C 80.959 319.164,84.814 310.139,84.821 300.681 L 84.823 297.390 91.560 292.268 C 98.901 286.688,98.819 286.740,98.547 287.872 M173.837 291.481 C 169.989 295.184,166.692 296.566,162.411 296.271 C 158.827 296.024,158.866 296.056,160.311 294.572 C 162.904 291.909,170.243 289.245,175.319 289.123 L 176.312 289.100 173.837 291.481 M239.549 297.987 C 248.781 305.678,257.427 313.892,264.605 321.791 L 268.165 325.709 267.992 327.748 C 267.818 329.800,266.523 337.834,266.205 338.836 C 266.080 339.233,265.537 338.411,264.144 335.716 C 257.772 323.380,247.052 312.374,235.000 305.796 C 234.222 305.371,234.107 305.029,232.516 298.420 C 231.599 294.608,230.777 291.302,230.690 291.074 C 230.491 290.554,232.649 292.238,239.549 297.987 M74.326 297.882 C 73.936 298.193,71.810 299.805,69.602 301.465 L 65.587 304.483 62.510 304.561 C 54.364 304.768,45.802 307.998,39.730 313.154 C 38.697 314.032,38.256 314.280,38.402 313.901 C 38.523 313.589,39.319 311.421,40.171 309.083 C 42.072 303.867,41.205 304.548,47.856 303.052 C 70.848 297.882,75.458 296.981,74.326 297.882 M81.907 299.929 C 80.530 303.417,75.810 313.512,72.457 320.142 L 68.151 328.652 65.069 328.633 C 63.373 328.622,60.744 328.514,59.227 328.394 L 56.469 328.175 57.809 327.105 C 63.285 322.733,67.772 315.557,68.787 309.547 C 68.980 308.403,69.102 308.295,73.854 305.062 C 76.532 303.240,79.362 301.268,80.142 300.678 C 81.631 299.554,82.140 299.338,81.907 299.929 M182.431 305.894 C 186.312 313.400,187.786 326.505,185.391 332.197 C 185.002 333.121,184.460 335.018,184.186 336.413 L 183.689 338.948 181.495 335.219 C 175.882 325.675,175.048 321.988,176.830 314.590 C 177.918 310.076,180.836 303.154,181.338 303.894 C 181.473 304.093,181.965 304.993,182.431 305.894 M230.811 316.508 L 232.700 324.221 231.227 325.870 C 224.940 332.905,221.533 344.908,223.049 354.681 C 223.261 356.046,223.398 357.163,223.354 357.163 C 223.272 357.163,218.614 353.135,216.057 350.854 L 214.668 349.614 215.441 346.083 C 218.399 332.571,221.451 323.116,226.724 311.120 C 228.352 307.418,228.509 307.167,228.707 307.947 C 228.826 308.413,229.773 312.265,230.811 316.508 M245.072 320.000 C 251.493 327.144,256.712 333.415,263.086 341.648 C 265.305 344.513,265.254 343.894,263.718 349.362 C 263.005 351.901,262.706 352.622,262.542 352.199 C 262.421 351.887,262.090 351.029,261.807 350.293 C 258.362 341.337,250.255 331.746,241.635 326.431 C 239.055 324.841,238.940 324.726,238.640 323.452 C 238.469 322.724,237.632 319.255,236.781 315.745 L 235.234 309.362 237.794 312.057 C 239.203 313.539,242.478 317.113,245.072 320.000 M56.582 311.176 C 55.230 312.449,43.155 320.638,38.867 323.189 C 34.798 325.610,34.732 325.544,36.278 320.572 L 37.379 317.030 41.502 315.978 C 45.562 314.941,53.203 312.473,55.448 311.473 C 56.793 310.874,56.944 310.835,56.582 311.176 M59.225 316.911 C 57.620 319.156,55.430 322.461,54.358 324.255 C 53.287 326.050,52.372 327.561,52.326 327.614 C 52.194 327.766,44.460 326.550,40.741 325.793 C 38.886 325.415,37.291 325.100,37.195 325.092 C 37.099 325.084,38.170 324.658,39.574 324.144 C 44.767 322.243,51.832 318.720,59.007 314.451 C 60.645 313.477,62.021 312.713,62.064 312.754 C 62.108 312.795,60.830 314.665,59.225 316.911 M158.663 317.622 C 160.084 317.868,159.956 318.104,157.190 320.333 C 149.953 326.168,143.428 327.144,133.929 323.813 C 133.688 323.728,134.188 323.280,135.206 322.668 C 136.126 322.115,137.135 321.430,137.447 321.147 C 140.577 318.303,151.823 316.435,158.663 317.622 M236.206 336.284 L 238.056 342.498 236.924 344.937 C 234.538 350.078,233.644 357.430,234.714 363.103 C 234.963 364.419,235.127 365.535,235.080 365.582 C 234.974 365.688,230.992 362.979,228.039 360.792 L 225.864 359.181 226.259 357.392 C 226.475 356.408,227.363 352.348,228.231 348.369 C 229.691 341.680,232.008 332.432,233.121 328.849 L 233.589 327.343 233.973 328.707 C 234.184 329.457,235.189 332.867,236.206 336.284 M161.997 333.150 C 162.972 339.194,161.309 349.797,158.982 352.368 C 158.749 352.626,158.130 353.638,157.607 354.617 L 156.656 356.397 155.934 354.014 C 152.977 344.251,153.664 340.045,159.488 332.252 C 161.485 329.581,161.418 329.557,161.997 333.150 M245.720 336.667 C 248.591 340.216,253.344 346.157,256.281 349.869 L 261.621 356.617 259.984 361.417 C 258.254 366.489,258.058 366.768,257.736 364.613 C 256.670 357.487,250.354 347.080,244.607 342.979 L 243.215 341.986 241.849 336.454 C 241.097 333.411,240.424 330.762,240.353 330.567 C 240.045 329.725,240.782 330.562,245.720 336.667 M101.135 343.580 C 109.399 344.970,110.022 345.112,108.085 345.169 C 93.304 345.607,83.262 346.678,75.338 348.664 C 70.873 349.783,70.892 349.735,74.610 350.463 C 85.725 352.641,103.811 351.953,114.468 348.947 C 117.079 348.211,116.494 348.652,111.487 351.195 C 92.361 360.909,72.485 360.813,66.276 350.977 C 65.268 349.381,65.235 349.448,67.806 347.940 C 78.462 341.694,84.902 340.851,101.135 343.580 M137.786 347.872 C 137.478 352.656,135.458 358.230,133.054 360.934 C 131.586 362.586,131.707 362.706,131.329 359.227 C 130.820 354.549,132.084 351.156,135.806 347.211 C 138.104 344.775,137.989 344.736,137.786 347.872 M245.467 362.411 C 247.901 367.935,249.415 370.920,251.702 374.704 L 252.273 375.649 250.463 374.737 C 242.912 370.936,238.789 368.255,238.985 367.273 C 239.534 364.529,240.549 354.073,240.572 350.922 C 240.578 350.177,241.065 351.203,242.524 355.035 C 243.593 357.844,244.917 361.163,245.467 362.411 M251.913 362.124 C 252.725 363.328,254.207 365.384,255.205 366.693 C 257.367 369.526,257.318 368.950,255.729 372.854 C 253.866 377.433,253.760 377.455,252.253 373.553 C 251.013 370.346,248.352 361.765,246.951 356.454 C 246.539 354.894,246.132 353.362,246.047 353.050 C 245.962 352.738,246.914 354.159,248.164 356.209 C 249.413 358.258,251.100 360.920,251.913 362.124 " stroke="none" fill="#33663b" fill-rule="evenodd"></path>
  </g>
</svg>
